<svg width="30" height="30" viewBox="0 0 30 30" fill="none" xmlns="http://www.w3.org/2000/svg">
<path d="M26.4844 1.98438H3.51562C1.57711 1.98438 0 3.56148 0 5.5V20.5C0 22.4385 1.57711 24.0156 3.51562 24.0156H26.4844C28.4229 24.0156 30 22.4385 30 20.5V5.5C30 3.56148 28.4229 1.98438 26.4844 1.98438ZM27.6562 20.5C27.6562 21.1462 27.1305 21.6719 26.4844 21.6719H3.51562C2.86945 21.6719 2.34375 21.1462 2.34375 20.5V5.5C2.34375 4.85383 2.86945 4.32812 3.51562 4.32812H26.4844C27.1305 4.32812 27.6562 4.85383 27.6562 5.5V20.5Z" fill="#232323"/>
<path d="M27.4573 5.44556L15 14.7114L2.54276 5.44556L1.14389 7.32612L15 17.6324L28.8562 7.32612L27.4573 5.44556Z" fill="#232323"/>
</svg>
