<svg width="30" height="30" viewBox="0 0 30 30" fill="none" xmlns="http://www.w3.org/2000/svg">
<g clip-path="url(#clip0_2_88)">
<path d="M15.0048 7.29736C10.7511 7.29736 7.30733 10.7449 7.30733 14.9949C7.30733 19.2486 10.7548 22.6924 15.0048 22.6924C19.2586 22.6924 22.7023 19.2449 22.7023 14.9949C22.7023 10.7411 19.2548 7.29736 15.0048 7.29736ZM15.0048 19.9911C12.2436 19.9911 10.0086 17.7549 10.0086 14.9949C10.0086 12.2349 12.2448 9.99861 15.0048 9.99861C17.7648 9.99861 20.0011 12.2349 20.0011 14.9949C20.0023 17.7549 17.7661 19.9911 15.0048 19.9911Z" fill="#232323"/>
<path d="M21.185 0.0949657C18.425 -0.0337842 11.5888 -0.0275342 8.82627 0.0949657C6.39877 0.208716 4.25752 0.794965 2.53127 2.52121C-0.353725 5.40621 0.0150247 9.29371 0.0150247 14.995C0.0150247 20.8299 -0.309975 24.6274 2.53127 27.4687C5.42752 30.3637 9.37127 29.9849 15.005 29.9849C20.785 29.9849 22.78 29.9887 24.8238 29.1974C27.6025 28.1187 29.7 25.6349 29.905 21.1737C30.035 18.4124 30.0275 11.5775 29.905 8.81496C29.6575 3.54871 26.8313 0.354965 21.185 0.0949657ZM25.5538 25.5599C23.6625 27.4512 21.0388 27.2824 14.9688 27.2824C8.71877 27.2824 6.21252 27.3749 4.38377 25.5412C2.27752 23.4449 2.65877 20.0787 2.65877 14.975C2.65877 8.06871 1.95002 3.09496 8.88128 2.73996C10.4738 2.68371 10.9425 2.66496 14.9513 2.66496L15.0075 2.70246C21.6688 2.70246 26.895 2.00496 27.2088 8.93496C27.28 10.5162 27.2963 10.9912 27.2963 14.9937C27.295 21.1712 27.4125 23.6924 25.5538 25.5599Z" fill="#232323"/>
<path d="M23.0073 8.79256C24.0007 8.79256 24.806 7.98724 24.806 6.99381C24.806 6.00039 24.0007 5.19507 23.0073 5.19507C22.0138 5.19507 21.2085 6.00039 21.2085 6.99381C21.2085 7.98724 22.0138 8.79256 23.0073 8.79256Z" fill="#232323"/>
</g>
<defs>
<clipPath id="clip0_2_88">
<rect width="30" height="30" fill="white"/>
</clipPath>
</defs>
</svg>
