<svg width="107" height="52" viewBox="0 0 107 52" fill="none" xmlns="http://www.w3.org/2000/svg">
<path d="M33.768 9.184C33.768 10.144 33.56 10.864 33.144 11.344C32.76 11.824 32.12 12.064 31.224 12.064C31.16 12.736 31.016 13.904 30.792 15.568C30.472 17.808 30.296 19.056 30.264 19.312C27.416 40.528 21.48 51.136 12.456 51.136C9.8 51.136 7.72 50.384 6.216 48.88C4.744 47.376 4.008 45.488 4.008 43.216C4.008 39.152 5.736 35.568 9.192 32.464C12.648 29.328 17.192 26.736 22.824 24.688C23.176 22.416 23.448 20.384 23.64 18.592L24.504 11.344C22.584 11.152 20.792 11.056 19.128 11.056C14.68 11.056 11.4 11.488 9.288 12.352C7.176 13.216 6.12 14.624 6.12 16.576C6.12 17.536 6.44 18.576 7.08 19.696C7.272 20.016 7.368 20.352 7.368 20.704C7.368 21.376 7.016 21.984 6.312 22.528C5.64 23.04 4.904 23.296 4.104 23.296C3.08 23.296 2.296 22.864 1.752 22C0.856 20.528 0.408 18.816 0.408 16.864C0.408 9.184 7.128 5.344 20.568 5.344C24.472 5.344 27.96 5.728 31.032 6.496C32.856 6.944 33.768 7.84 33.768 9.184ZM13.08 46C14.648 46 16.216 44.816 17.784 42.448C19.352 40.08 20.728 35.936 21.912 30.016C14.104 33.44 10.2 37.632 10.2 42.592C10.2 43.68 10.456 44.528 10.968 45.136C11.48 45.712 12.184 46 13.08 46ZM39.39 46.24C37.95 46.24 36.766 45.584 35.838 44.272C34.942 42.928 34.494 41.264 34.494 39.28C34.494 36.88 34.654 34.688 34.974 32.704C35.294 30.688 35.822 28.56 36.558 26.32C36.878 25.36 37.326 24.672 37.902 24.256C38.478 23.84 39.39 23.632 40.638 23.632C41.342 23.632 41.822 23.744 42.078 23.968C42.366 24.192 42.51 24.528 42.51 24.976C42.51 25.232 42.334 26.096 41.982 27.568C41.662 28.752 41.406 29.824 41.214 30.784C40.574 34.144 40.254 36.384 40.254 37.504C40.254 38.176 40.334 38.656 40.494 38.944C40.654 39.2 40.91 39.328 41.262 39.328C41.742 39.328 42.334 38.848 43.038 37.888C43.774 36.928 44.542 35.472 45.342 33.52C46.174 31.568 46.974 29.168 47.742 26.32C47.998 25.36 48.382 24.672 48.894 24.256C49.438 23.84 50.238 23.632 51.294 23.632C52.03 23.632 52.542 23.728 52.83 23.92C53.118 24.08 53.262 24.4 53.262 24.88C53.262 25.68 52.862 27.872 52.062 31.456C51.166 35.552 50.718 38.08 50.718 39.04C50.718 39.648 50.846 40.128 51.102 40.48C51.358 40.8 51.694 40.96 52.11 40.96C52.75 40.96 53.502 40.576 54.366 39.808C55.262 39.008 56.446 37.728 57.918 35.968C58.302 35.52 58.734 35.296 59.214 35.296C59.63 35.296 59.95 35.488 60.174 35.872C60.43 36.256 60.558 36.784 60.558 37.456C60.558 38.736 60.254 39.728 59.646 40.432C58.27 42.128 56.782 43.52 55.182 44.608C53.614 45.696 51.822 46.24 49.806 46.24C48.27 46.24 47.134 45.648 46.398 44.464C45.694 43.28 45.342 41.616 45.342 39.472C44.798 41.648 43.982 43.328 42.894 44.512C41.806 45.664 40.638 46.24 39.39 46.24ZM76.2979 35.296C76.7139 35.296 77.0339 35.488 77.2579 35.872C77.5139 36.256 77.6419 36.784 77.6419 37.456C77.6419 38.736 77.3379 39.728 76.7299 40.432C75.3539 42.128 73.8499 43.52 72.2179 44.608C70.6179 45.696 68.7939 46.24 66.7459 46.24C63.9299 46.24 61.8339 44.96 60.4579 42.4C59.1139 39.84 58.4419 36.528 58.4419 32.464C58.4419 28.56 58.9379 24.112 59.9299 19.12C60.9539 14.128 62.4419 9.84 64.3939 6.256C66.3779 2.672 68.7299 0.879997 71.4499 0.879997C72.9859 0.879997 74.1859 1.6 75.0499 3.04C75.9459 4.448 76.3939 6.48 76.3939 9.136C76.3939 12.944 75.3379 17.36 73.2259 22.384C71.1139 27.408 68.2499 32.384 64.6339 37.312C64.8579 38.624 65.2259 39.568 65.7379 40.144C66.2499 40.688 66.9219 40.96 67.7539 40.96C69.0659 40.96 70.2179 40.592 71.2099 39.856C72.2019 39.088 73.4659 37.792 75.0019 35.968C75.3859 35.52 75.8179 35.296 76.2979 35.296ZM70.3939 5.632C69.6579 5.632 68.8259 6.96 67.8979 9.616C66.9699 12.272 66.1539 15.568 65.4499 19.504C64.7459 23.44 64.3619 27.216 64.2979 30.832C66.5699 27.088 68.3779 23.344 69.7219 19.6C71.0659 15.824 71.7379 12.384 71.7379 9.28C71.7379 6.848 71.2899 5.632 70.3939 5.632ZM81.4901 20.464C80.1461 20.464 79.1381 20.16 78.4661 19.552C77.7941 18.912 77.4581 18.032 77.4581 16.912C77.4581 15.792 77.8901 14.864 78.7541 14.128C79.6501 13.36 80.7541 12.976 82.0661 12.976C83.2501 12.976 84.2101 13.264 84.9461 13.84C85.6821 14.416 86.0501 15.232 86.0501 16.288C86.0501 17.568 85.6341 18.592 84.8021 19.36C83.9701 20.096 82.8661 20.464 81.4901 20.464ZM81.1061 46.24C79.0261 46.24 77.5061 45.504 76.5461 44.032C75.6181 42.56 75.1541 40.608 75.1541 38.176C75.1541 36.736 75.3301 34.896 75.6821 32.656C76.0661 30.384 76.5461 28.272 77.1221 26.32C77.4101 25.296 77.7941 24.592 78.2741 24.208C78.7541 23.824 79.5221 23.632 80.5781 23.632C82.2101 23.632 83.0261 24.176 83.0261 25.264C83.0261 26.064 82.7221 27.92 82.1141 30.832C81.3461 34.352 80.9621 36.736 80.9621 37.984C80.9621 38.944 81.0901 39.68 81.3461 40.192C81.6021 40.704 82.0341 40.96 82.6421 40.96C83.2181 40.96 83.9381 40.56 84.8021 39.76C85.6661 38.96 86.8181 37.696 88.2581 35.968C88.6421 35.52 89.0741 35.296 89.5541 35.296C89.9701 35.296 90.2901 35.488 90.5141 35.872C90.7701 36.256 90.8981 36.784 90.8981 37.456C90.8981 38.736 90.5941 39.728 89.9861 40.432C86.8181 44.304 83.8581 46.24 81.1061 46.24ZM105.639 36.736C106.055 36.736 106.375 36.928 106.599 37.312C106.855 37.696 106.983 38.224 106.983 38.896C106.983 40.048 106.711 41.04 106.167 41.872C105.271 43.248 104.087 44.32 102.615 45.088C101.175 45.856 99.4466 46.24 97.4306 46.24C94.3586 46.24 91.9746 45.328 90.2786 43.504C88.5826 41.648 87.7346 39.152 87.7346 36.016C87.7346 33.808 88.1986 31.76 89.1266 29.872C90.0546 27.952 91.3346 26.432 92.9666 25.312C94.6306 24.192 96.5026 23.632 98.5826 23.632C100.439 23.632 101.927 24.192 103.047 25.312C104.167 26.4 104.727 27.888 104.727 29.776C104.727 31.984 103.927 33.888 102.327 35.488C100.759 37.056 98.0706 38.304 94.2626 39.232C95.0306 40.704 96.3266 41.44 98.1506 41.44C99.4626 41.44 100.535 41.136 101.367 40.528C102.231 39.92 103.223 38.896 104.343 37.456C104.727 36.976 105.159 36.736 105.639 36.736ZM97.7666 28.336C96.5826 28.336 95.5746 29.024 94.7426 30.4C93.9426 31.776 93.5426 33.44 93.5426 35.392V35.488C95.4306 35.04 96.9186 34.368 98.0066 33.472C99.0946 32.576 99.6386 31.536 99.6386 30.352C99.6386 29.744 99.4626 29.264 99.1106 28.912C98.7906 28.528 98.3426 28.336 97.7666 28.336Z" fill="#A52424"/>
</svg>
